<svg width="1061" height="742.85506" xmlns="http://www.w3.org/2000/svg">
 <title>task</title>

 <g>
  <title>background</title>
  <rect fill="none" id="canvas_background" height="744.85506" width="1063" y="-1" x="-1"/>
 </g>
 <g>
  <title>Layer 1</title>
  <path id="svg_5" fill="#3f3d56" d="m1037.97,691.36507c0,10.11 -29.37988,19.55 -80.13995,27.5c-91.98,14.42 -254.15,23.99 -438.85,23.99c-286.62,0 -518.98,-23.05 -518.98,-51.49c0,-3.93 4.46,-7.78 12.91,-11.46c9.53,-4.17 24.15,-8.14 43.17005,-11.85c39.21,-7.65 97.13995,-14.19 167.8,-19.05c82.02,-5.62994 181.21,-8.98 288.21,-9.11q3.435,-0.015 6.88995,-0.01q19.335,0 38.33,0.14q8.925,0.06006 17.77,0.16c63.02,0.67 122.66,2.46 176.86,5.16c2.42,0.12 4.83,0.25 7.23,0.37c0.82,0.04 1.64,0.09 2.46,0.13c0.22,0.01 0.44,0.02 0.66,0.04q15.975,0.84 31.25,1.79q5.01,0.3 9.93,0.63c31.87006,2.07 61.29,4.48 87.75,7.19q6.78,0.68994 13.30005,1.41c33.48,3.67 61.66992,7.84 83.38989,12.37c32.10001,6.68997 50.06001,14.17996 50.06001,22.09z"/>
  <ellipse id="svg_6" opacity="0.1" ry="26.20202" rx="113.08238" cy="688.14768" cx="752.96319"/>
  <path id="svg_7" opacity="0.1" d="m1037.97,691.36507c0,10.11 -29.37988,19.55 -80.13995,27.5c-38.38,-4.19 -64.95,-13.24 -64.95,-23.72c0,-13.05 41.16,-23.87 95.02991,-25.87c32.10004,6.68997 50.06004,14.17996 50.06004,22.09z"/>
  <path id="svg_8" opacity="0.1" d="m562.65381,679.41367c0,17.26572 -123.07592,31.25855 -274.89132,31.25855c-150.39039,0 -272.5745,-13.72617 -274.85457,-30.77131c29.19,-12.74244 106.04,-23.683 210.96763,-30.9c20.50191,-0.5516 41.89565,-0.8458 63.88694,-0.8458c151.8154,0.00002 274.89132,13.99279 274.89132,31.25856z"/>
  <rect id="svg_9" fill="#3f3d56" height="683.09115" width="456.00701" x="56.08151"/>
  <rect id="svg_10" fill="#2f2e41" height="209.61613" width="428.42594" y="237.1972" x="83.66258"/>
  <rect id="svg_11" fill="#3f3d56" height="199.50307" width="423.8291" y="241.79404" x="256.50394"/>
  <rect id="svg_12" fill="#7579e7" height="34.01665" width="94.695" y="271.21385" x="282.47612"/>
  <rect id="svg_13" fill="#7579e7" height="9.19369" width="348.44084" y="330.97283" x="305.92003"/>
  <rect id="svg_14" fill="#7579e7" height="9.19369" width="348.44084" y="354.87642" x="305.92003"/>
  <rect id="svg_15" fill="#7579e7" height="9.19369" width="348.44084" y="378.78002" x="305.92003"/>
  <rect id="svg_16" fill="#7579e7" height="9.19369" width="348.44084" y="402.68361" x="305.92003"/>
  <rect id="svg_17" fill="#f2f2f2" height="34.01665" width="94.695" y="77.22699" x="86.42068"/>
  <rect id="svg_18" fill="#f2f2f2" height="9.19369" width="348.44084" y="136.98598" x="109.86459"/>
  <rect id="svg_19" fill="#f2f2f2" height="9.19369" width="348.44084" y="160.88957" x="109.86459"/>
  <rect id="svg_20" fill="#f2f2f2" height="9.19369" width="348.44084" y="184.79316" x="109.86459"/>
  <rect id="svg_21" fill="#f2f2f2" height="9.19369" width="348.44084" y="208.69676" x="109.86459"/>
  <rect id="svg_22" fill="#f2f2f2" height="34.01665" width="94.695" y="467.95881" x="90.09816"/>
  <rect id="svg_23" fill="#f2f2f2" height="9.19369" width="348.44084" y="527.71779" x="113.54207"/>
  <rect id="svg_24" fill="#f2f2f2" height="9.19369" width="348.44084" y="551.62138" x="113.54207"/>
  <rect id="svg_25" fill="#f2f2f2" height="9.19369" width="348.44084" y="575.52498" x="113.54207"/>
  <rect id="svg_26" fill="#f2f2f2" height="9.19369" width="348.44084" y="599.42857" x="113.54207"/>
  <path id="svg_27" fill="#ffb9b9" d="m723.06281,140.45843s18.90356,24.22018 16.54061,41.35153s38.98858,-23.62943 38.98858,-23.62943s-14.17767,-29.53681 -6.4981,-43.71448s-49.03109,25.99238 -49.03109,25.99238z"/>
  <path id="svg_28" fill="#2f2e41" d="m789.22526,630.76944s24.81092,27.17386 20.67577,33.08122s-76.7957,28.35533 -85.066,27.17386s-12.40546,-7.08883 -9.45178,-8.861s21.85724,-11.81472 21.85724,-11.81472l15.94988,-18.31282s11.81472,-6.4981 11.81472,-10.04252s24.22017,-11.22402 24.22017,-11.22402z"/>
  <path id="svg_29" fill="#ffb9b9" d="m747.283,660.89698s-9.45177,15.35914 -11.224,15.94988s8.861,21.85723 8.861,21.85723l24.811,-7.67956l13.58693,-11.224l-2.95368,-15.35914l-33.08125,-3.54441z"/>
  <path id="svg_30" fill="#d0cde1" d="m721.88134,367.89185l-11.81472,52.57552s-40.7608,91.5641 -12.40546,107.514l62.02729,118.738l33.08123,-14.7684l-55.5292,-121.69165l25.40165,-140.00447l-40.76079,-2.363z"/>
  <path id="svg_31" opacity="0.1" d="m721.88134,367.89185l-11.81472,52.57552s-40.7608,91.5641 -12.40546,107.514l62.02729,118.738l33.08123,-14.7684l-55.5292,-121.69165l25.40165,-140.00447l-40.76079,-2.363z"/>
  <path id="svg_32" fill="#d0cde1" d="m726.01649,376.16216l-5.99365,0a333.982,333.982 0 0 0 3.04,54.34772c4.13515,30.12754 14.76841,99.24367 14.76841,99.24367s-1.18148,12.9962 2.36294,17.13135s4.13515,-1.18147 4.72589,8.27031s6.20273,75.167 6.20273,75.167s3.83978,13.44347 -0.29537,16.39715s-12.40546,18.90356 -6.4981,21.2665s46.66816,5.31663 48.44037,3.54442s0,-112.8306 0,-112.8306s-1.18148,-22.448 -2.36295,-23.62945s-6.4981,-17.13135 -4.72589,-20.67577s0.59074,-14.17766 0.59074,-15.94987s-5.31663,0 -0.59074,-7.67957s5.31663,-69.11613 5.31663,-69.11613s25.40165,-38.98859 17.72208,-49.0311l-82.70309,3.54437z"/>
  <circle id="svg_33" fill="#ffb9b9" r="38.98859" cy="110.33089" cx="739.60342"/>
  <path id="svg_34" fill="#2f2e41" d="m778.592,151.68242s-23.62945,5.90736 -33.08122,20.085l-8.27031,1.77221l0,8.2703s-15.35914,49.0311 -11.81472,70.2976s0,62.618 -5.90737,73.842s-7.67957,13.58693 -4.72588,18.31282s7.08883,20.67577 4.13515,27.7646s0,14.17767 27.17386,15.94988s65.57171,1.77221 65.57171,-7.67957s-2.36294,-36.03491 0,-43.12374s3.54442,-11.81472 2.36295,-18.31282s2.36294,-79.15864 2.36294,-79.15864s0.59075,-72.66053 -37.80711,-88.01964z"/>
  <path id="svg_35" fill="#ffb9b9" d="m723.06281,334.21989l-32.49049,48.44036s-34.26269,31.309 -21.85723,45.48669s44.89591,-41.35153 44.89591,-41.35153l35.44417,-40.17006l-25.99236,-12.40546z"/>
  <path id="svg_36" fill="#2f2e41" d="m743.73858,679.80053s-1.18148,-7.67957 -5.31663,-7.67957s-31.89975,18.90357 -31.89975,18.90357s-36.62564,4.13516 -22.448,11.81473s101.01588,8.861 101.60661,5.90736s1.77221,-32.08116 -2.36294,-31.99046s-37.21638,6.5888 -37.21638,6.5888l-2.36291,-3.54443z"/>
  <path id="svg_37" fill="#2f2e41" d="m742.37686,90.18842a9.77913,9.77913 0 0 1 -4.45607,1.00684c-1.59349,0.09057 -3.49555,-0.008 -4.343,-1.36045a6.221,6.221 0 0 1 -0.54225,-2.837a9.34634,9.34634 0 0 0 -10.92238,-7.96043a13.44458,13.44458 0 0 0 1.74051,5.54339a11.85549,11.85549 0 0 1 -10.42222,-1.38722l-0.60006,7.95737c-2.1192,1.01275 -4.834,1.224 -6.68211,-0.2255s-1.99585,-4.85139 0.09446,-5.9225c-2.582,-0.5384 -5.73992,-1.69522 -5.92989,-4.32593c-0.17333,-2.40039 2.37513,-4.15727 2.84437,-6.51772c0.38272,-1.92518 -0.6727,-4.01766 0.07418,-5.83287c0.98118,-2.38464 4.54365,-2.99682 5.25837,-5.4744c0.364,-1.26178 -0.15973,-2.61142 -0.03472,-3.91869c0.32734,-3.42283 4.63049,-4.84393 8.06342,-4.64939s7.17972,1.10618 10.09614,-0.71518c1.41407,-0.88311 2.40169,-2.29662 3.64423,-3.40818a10.82274,10.82274 0 0 1 12.568,-1.09287c1.38063,0.85856 2.58527,2.04835 4.125,2.57019c3.151,1.06792 6.43846,-0.95269 9.73277,-1.41848a8.0861,8.0861 0 0 1 6.77889,1.96365a5.54921,5.54921 0 0 1 1.01,6.686c1.93273,-0.32645 3.98079,-0.64221 5.8023,0.08175s3.21335,2.905 2.37066,4.67472a6.05576,6.05576 0 0 0 -0.735,1.50119c-0.171,1.0296 0.8205,1.90986 1.82158,2.2051s2.0876,0.24 3.06773,0.59872c4.04919,1.48193 3.07759,7.95527 6.2646,10.85958a25.41622,25.41622 0 0 0 3.45482,2.11281a8.4062,8.4062 0 0 1 2.96417,10.15561c-0.63881,1.41464 -1.70919,2.76468 -1.58024,4.3115c0.18086,2.1695 2.50546,3.35783 4.13683,4.79939a9.62473,9.62473 0 0 1 2.24041,11.05039c-1.49958,3.12814 -4.74717,5.49944 -5.07685,8.95275c-0.1433,1.50108 0.30776,2.99971 0.28208,4.5074a9.287,9.287 0 0 1 -3.99193,7.01155a20.76464,20.76464 0 0 1 -7.663,3.18852c-1.28776,0.30824 -2.82439,0.79082 -3.13606,2.07775c-0.36952,1.52585 1.33294,2.91435 1.15677,4.47439a2.59459,2.59459 0 0 1 -1.0418,1.68634c-2.30448,1.80225 -5.95147,0.25721 -7.3606,-2.30659s-1.229,-5.67066 -1.01054,-8.588l0.79458,-10.60829c0.24724,-3.30077 0.22352,-7.22049 -2.46726,-9.14818c-2.97476,-2.13114 -7.30715,-0.40582 -10.67124,-1.84592c-3.50523,-1.50052 -4.76265,-5.892 -4.62122,-9.70232s1.23314,-7.62654 0.60545,-11.388c-0.77818,-4.66122 -4.92422,-7.794 -9.11051,-4.77343c3.67921,-0.50125 4.31447,3.72127 1.40663,5.43064z"/>
  <path id="svg_38" opacity="0.1" d="m775.04759,180.03775s-23.62944,9.45178 -23.62944,29.53678s1.18147,46.66816 -2.95368,55.5292s-7.67957,11.81472 -5.31663,18.90356s6.4981,5.90736 0,11.224s-5.90736,-3.54441 -6.4981,5.31663s5.90736,10.04251 0,14.17767s-21.2665,20.67576 -14.7684,25.99239s23.62945,22.448 29.53681,15.94987s8.861,-23.03871 17.13135,-21.85724s9.45177,1.77221 8.2703,-4.13515s-6.4981,-5.90736 0.59074,-7.67957s10.04251,2.363 7.67957,-3.54441s-4.13516,-8.27031 0.59073,-14.76841s7.08884,-8.2703 6.4981,-14.7684s12.9962,-64.981 12.9962,-64.981s4.13515,-49.62181 -30.12755,-44.89592z"/>
  <path id="svg_39" opacity="0.1" d="m768.5495,178.85628s-23.6295,9.45178 -23.6295,29.53681s1.18147,46.66815 -2.95368,55.5292s-7.67957,11.81472 -5.31663,18.90355s6.4981,5.90737 0,11.224s-5.90736,-3.54442 -6.49809,5.31663s5.90736,10.04251 0,14.17766s-21.26651,20.67577 -14.76841,25.99239s23.62945,22.448 29.53681,15.94988s8.861,-23.03871 17.13135,-21.85724s9.45178,1.77221 8.2703,-4.13515s-6.49809,-5.90736 0.59074,-7.67957s10.04251,2.36294 7.67957,-3.54442s-4.13515,-8.2703 0.59074,-14.7684s7.08883,-8.27031 6.49809,-14.7684s12.9962,-64.981 12.9962,-64.981s4.1352,-49.62183 -30.12749,-44.89594z"/>
  <path id="svg_40" fill="#2f2e41" d="m771.50318,177.08407s-23.62945,9.45178 -23.62945,29.53681s1.18147,46.66816 -2.95368,55.5292s-7.67957,11.81472 -5.31663,18.90356s6.4981,5.90736 0,11.224s-5.90736,-3.54441 -6.49809,5.31663s5.90736,10.04251 0,14.17767s-21.26651,20.67576 -14.76841,25.99239s23.62945,22.448 29.53681,15.94987s8.861,-23.03871 17.13135,-21.85724s9.45178,1.77221 8.2703,-4.13515s-6.49809,-5.90736 0.59074,-7.67957s10.04251,2.363 7.67957,-3.54442s-4.13515,-8.2703 0.59074,-14.7684s7.08883,-8.27031 6.49809,-14.7684s12.9962,-64.981 12.9962,-64.981s4.13515,-49.62184 -30.12754,-44.89595z"/>
  <path id="svg_41" fill="#2f2e41" d="m895,585.21447c0,51.68416 32.42393,93.50633 72.49367,93.50633"/>
  <path id="svg_42" fill="#6c63ff" d="m967.49367,678.7208c0,-52.26489 36.18322,-94.557 80.89874,-94.557"/>
  <path id="svg_43" fill="#6c63ff" d="m921.26582,589.89972c0,49.09446 20.67613,88.82108 46.22785,88.82108"/>
  <path id="svg_44" fill="#2f2e41" d="m967.49367,678.7208c0,-66.78291 41.82217,-120.82279 93.50633,-120.82279"/>
  <path id="svg_45" fill="#a8a8a8" d="m952.24287,679.38003s10.2808,-0.31664 13.37917,-2.523s15.81445,-4.84077 16.58308,-1.30233s15.45013,17.59858 3.84316,17.6922s-26.96943,-1.808 -30.06184,-3.69167s-3.74357,-10.1752 -3.74357,-10.1752z"/>
  <path id="svg_46" opacity="0.2" d="m986.25542,692.01521c-11.607,0.09365 -26.96942,-1.808 -30.06184,-3.69167c-2.355,-1.43454 -3.29349,-6.582 -3.60749,-8.9569c-0.21746,0.00935 -0.34322,0.01338 -0.34322,0.01338s0.65117,8.29153 3.74358,10.17525s18.45487,3.78532 30.06184,3.69167c3.35047,-0.027 4.50778,-1.21907 4.44423,-2.9846c-0.46545,1.06669 -1.7433,1.73276 -4.2371,1.75287z"/>
 </g>
</svg>